<svg width="36" height="36" viewBox="0 0 36 36" fill="none" xmlns="http://www.w3.org/2000/svg">
<path d="M18.8855 36C28.4153 35.5381 36 27.6607 36 18.0107C36 8.06367 27.9411 0 18 0C8.05888 0 0 8.06367 0 18.0107C0 27.6447 7.55954 35.5119 17.0671 35.9976C19.5264 32.8961 20.0564 31.5456 20.1746 28.5962V19.7109C16.9074 24.971 12.6576 21.9026 10.9411 19.7109C15.913 10.4702 11.1186 11.2402 8.1 12.7804C9.9467 9.7949 11.9473 9.167 12.7168 9.22623C16.4102 8.9419 15.5578 14.6166 14.4924 17.4007C17.0494 22.2343 19.3459 20.1255 20.1746 18.4669V14.7351C21.5951 7.9112 25.8568 8.57464 27.81 9.75934L25.3241 12.0695C23.0512 10.3635 22.483 11.8326 22.483 12.7804L22.6605 27.5299C22.7733 31.7467 20.9222 34.2821 18.8855 36Z" fill="currentColor"/>
</svg>
